<svg xmlns="http://www.w3.org/2000/svg" xmlns:xlink="http://www.w3.org/1999/xlink" width="1072" zoomAndPan="magnify" viewBox="0 0 804 91.5" height="122" preserveAspectRatio="xMidYMid meet" version="1.0"><defs><g/><clipPath id="af885bf894"><path d="M 256.460938 11 L 399 11 L 399 66 L 256.460938 66 Z M 256.460938 11 " clip-rule="nonzero"/></clipPath><clipPath id="64277649aa"><path d="M 311 51 L 475.761719 51 L 475.761719 72 L 311 72 Z M 311 51 " clip-rule="nonzero"/></clipPath><clipPath id="bb61361d55"><path d="M 359 54 L 368 54 L 368 79.964844 L 359 79.964844 Z M 359 54 " clip-rule="nonzero"/></clipPath><clipPath id="181ca61799"><path d="M 348 54 L 358 54 L 358 79.964844 L 348 79.964844 Z M 348 54 " clip-rule="nonzero"/></clipPath><clipPath id="38075521d1"><path d="M 338 54 L 347 54 L 347 79.964844 L 338 79.964844 Z M 338 54 " clip-rule="nonzero"/></clipPath></defs><g clip-path="url(#af885bf894)"><path fill="#ffd51e" d="M 321.578125 64.179688 L 316.523438 64.179688 C 316.523438 64.179688 313.34375 63.933594 311.011719 65.628906 L 310.949219 65.675781 L 269.742188 65.675781 C 269.742188 65.675781 256.527344 65.101562 256.527344 47.148438 C 256.527344 29.195312 269.742188 28.429688 269.742188 28.429688 C 385.324219 27.300781 390.324219 23.300781 391.617188 16.601562 C 392.546875 11.796875 394.410156 12.128906 394.410156 12.128906 C 394.410156 12.128906 398.839844 9.09375 398.839844 31.195312 C 398.839844 53.296875 394.410156 50.265625 394.410156 50.265625 C 394.410156 50.265625 392.792969 50.539062 391.617188 45.792969 C 389.875 38.738281 389.085938 35.039062 274.039062 33.957031 C 274.039062 33.957031 262.65625 33.1875 262.65625 46.917969 C 262.65625 60.652344 273.878906 59.847656 273.878906 59.847656 L 314.644531 59.847656 C 314.644531 59.847656 321.578125 59.847656 321.578125 64.179688 " fill-opacity="1" fill-rule="nonzero"/></g><g clip-path="url(#64277649aa)"><path fill="#ffd51e" d="M 367.636719 71.316406 L 461.824219 71.316406 C 461.824219 71.316406 475.667969 71.890625 475.667969 61.246094 C 475.667969 50.179688 461.824219 51.40625 461.824219 51.40625 L 311.125 51.40625 L 311.125 54.972656 L 461.824219 54.972656 C 461.824219 54.972656 471.933594 54.226562 471.933594 60.960938 C 471.933594 68.246094 461.824219 67.746094 461.824219 67.746094 L 367.636719 67.746094 L 367.636719 71.316406 " fill-opacity="1" fill-rule="nonzero"/></g><path fill="#ffd51e" d="M 409.074219 67.746094 C 409.074219 63.976562 405.679688 63.949219 405.679688 63.949219 L 367.636719 63.949219 L 367.636719 61.34375 L 407.058594 61.34375 C 407.058594 61.34375 411.746094 60.957031 411.746094 67.746094 L 409.074219 67.746094 " fill-opacity="1" fill-rule="nonzero"/><path fill="#ffd51e" d="M 311.125 51.136719 C 311.125 50.882812 310.921875 50.675781 310.667969 50.675781 L 308.945312 50.675781 C 308.691406 50.675781 308.484375 50.882812 308.484375 51.136719 L 308.484375 55.203125 C 308.484375 55.457031 308.691406 55.664062 308.945312 55.664062 L 310.667969 55.664062 C 310.921875 55.664062 311.125 55.457031 311.125 55.203125 L 311.125 51.136719 " fill-opacity="1" fill-rule="nonzero"/><path fill="#ffd51e" d="M 297.171875 51.136719 C 297.171875 50.882812 296.96875 50.675781 296.714844 50.675781 L 294.992188 50.675781 C 294.738281 50.675781 294.53125 50.882812 294.53125 51.136719 L 294.53125 55.203125 C 294.53125 55.457031 294.738281 55.664062 294.992188 55.664062 L 296.714844 55.664062 C 296.96875 55.664062 297.171875 55.457031 297.171875 55.203125 L 297.171875 51.136719 " fill-opacity="1" fill-rule="nonzero"/><path fill="#ffd51e" d="M 288.003906 48.683594 C 288.003906 48.527344 287.875 48.402344 287.722656 48.402344 L 286.660156 48.402344 C 286.503906 48.402344 286.375 48.527344 286.375 48.683594 L 286.375 57.660156 C 286.375 57.8125 286.503906 57.941406 286.660156 57.941406 L 287.722656 57.941406 C 287.875 57.941406 288.003906 57.8125 288.003906 57.660156 L 288.003906 48.683594 " fill-opacity="1" fill-rule="nonzero"/><path fill="#ffd51e" d="M 308.484375 51.367188 L 297.171875 51.367188 L 297.171875 54.972656 L 308.484375 54.972656 L 308.484375 51.367188 " fill-opacity="1" fill-rule="nonzero"/><path fill="#ffd51e" d="M 288.003906 57.691406 C 293.863281 57.691406 294.53125 55.199219 294.53125 55.199219 L 294.53125 51.136719 C 294.53125 51.136719 293.863281 48.644531 288.003906 48.644531 L 288.003906 57.691406 " fill-opacity="1" fill-rule="nonzero"/><path fill="#ffd51e" d="M 276.589844 33.984375 L 273.453125 33.984375 L 273.453125 59.855469 L 276.589844 59.855469 L 276.589844 33.984375 " fill-opacity="1" fill-rule="nonzero"/><path fill="#ffd51e" d="M 305.535156 34.367188 L 302.398438 34.316406 L 302.398438 51.367188 L 305.535156 51.367188 L 305.535156 34.367188 " fill-opacity="1" fill-rule="nonzero"/><path fill="#ffd51e" d="M 305.535156 54.972656 L 302.398438 54.972656 L 302.398438 59.847656 L 305.535156 59.847656 L 305.535156 54.972656 " fill-opacity="1" fill-rule="nonzero"/><path fill="#ffd51e" d="M 359.484375 48.300781 L 359.484375 51.367188 L 367.636719 51.367188 L 367.636719 48.300781 L 359.484375 48.300781 " fill-opacity="1" fill-rule="nonzero"/><g clip-path="url(#bb61361d55)"><path fill="#ffd51e" d="M 359.484375 78.566406 C 359.484375 79.328125 360.101562 79.945312 360.863281 79.945312 L 366.257812 79.945312 C 367.019531 79.945312 367.636719 79.328125 367.636719 78.566406 L 367.636719 54.933594 L 359.484375 54.933594 L 359.484375 78.566406 " fill-opacity="1" fill-rule="nonzero"/></g><path fill="#ffd51e" d="M 367.636719 48.300781 C 367.636719 47.535156 367.019531 46.917969 366.257812 46.917969 L 360.863281 46.917969 C 360.101562 46.917969 359.484375 47.535156 359.484375 48.300781 L 367.636719 48.300781 " fill-opacity="1" fill-rule="nonzero"/><path fill="#ffd51e" d="M 367.179688 43.40625 L 359.941406 43.40625 C 359.6875 43.40625 359.484375 43.613281 359.484375 43.867188 L 359.484375 44.097656 C 359.484375 44.351562 359.6875 44.558594 359.941406 44.558594 L 362.871094 44.558594 L 362.871094 46.859375 L 364.25 46.859375 L 364.25 44.558594 L 367.179688 44.558594 C 367.433594 44.558594 367.636719 44.351562 367.636719 44.097656 L 367.636719 43.867188 C 367.636719 43.613281 367.433594 43.40625 367.179688 43.40625 " fill-opacity="1" fill-rule="nonzero"/><path fill="#ffd51e" d="M 348.992188 48.300781 L 348.992188 51.367188 L 357.148438 51.367188 L 357.148438 48.300781 L 348.992188 48.300781 " fill-opacity="1" fill-rule="nonzero"/><g clip-path="url(#181ca61799)"><path fill="#ffd51e" d="M 348.992188 78.566406 C 348.992188 79.328125 349.609375 79.945312 350.371094 79.945312 L 355.769531 79.945312 C 356.53125 79.945312 357.148438 79.328125 357.148438 78.566406 L 357.148438 54.933594 L 348.992188 54.933594 L 348.992188 78.566406 " fill-opacity="1" fill-rule="nonzero"/></g><path fill="#ffd51e" d="M 357.148438 48.300781 C 357.148438 47.535156 356.53125 46.917969 355.769531 46.917969 L 350.371094 46.917969 C 349.609375 46.917969 348.992188 47.535156 348.992188 48.300781 L 357.148438 48.300781 " fill-opacity="1" fill-rule="nonzero"/><path fill="#ffd51e" d="M 356.6875 43.40625 L 349.453125 43.40625 C 349.199219 43.40625 348.992188 43.613281 348.992188 43.867188 L 348.992188 44.097656 C 348.992188 44.351562 349.199219 44.558594 349.453125 44.558594 L 352.382812 44.558594 L 352.382812 46.859375 L 353.757812 46.859375 L 353.757812 44.558594 L 356.6875 44.558594 C 356.941406 44.558594 357.148438 44.351562 357.148438 44.097656 L 357.148438 43.867188 C 357.148438 43.613281 356.941406 43.40625 356.6875 43.40625 " fill-opacity="1" fill-rule="nonzero"/><path fill="#ffd51e" d="M 338.121094 48.300781 L 338.121094 51.367188 L 346.273438 51.367188 L 346.273438 48.300781 L 338.121094 48.300781 " fill-opacity="1" fill-rule="nonzero"/><g clip-path="url(#38075521d1)"><path fill="#ffd51e" d="M 338.121094 78.566406 C 338.121094 79.328125 338.738281 79.945312 339.496094 79.945312 L 344.894531 79.945312 C 345.65625 79.945312 346.273438 79.328125 346.273438 78.566406 L 346.273438 54.933594 L 338.121094 54.933594 L 338.121094 78.566406 " fill-opacity="1" fill-rule="nonzero"/></g><path fill="#ffd51e" d="M 346.273438 48.300781 C 346.273438 47.535156 345.65625 46.917969 344.894531 46.917969 L 339.496094 46.917969 C 338.738281 46.917969 338.121094 47.535156 338.121094 48.300781 L 346.273438 48.300781 " fill-opacity="1" fill-rule="nonzero"/><path fill="#ffd51e" d="M 345.816406 43.40625 L 338.578125 43.40625 C 338.324219 43.40625 338.121094 43.613281 338.121094 43.867188 L 338.121094 44.097656 C 338.121094 44.351562 338.324219 44.558594 338.578125 44.558594 L 341.507812 44.558594 L 341.507812 46.859375 L 342.886719 46.859375 L 342.886719 44.558594 L 345.816406 44.558594 C 346.070312 44.558594 346.273438 44.351562 346.273438 44.097656 L 346.273438 43.867188 C 346.273438 43.613281 346.070312 43.40625 345.816406 43.40625 " fill-opacity="1" fill-rule="nonzero"/><path fill="#ffd51e" d="M 357.148438 72.082031 L 359.484375 72.082031 L 359.484375 66.480469 L 357.148438 66.480469 L 357.148438 72.082031 " fill-opacity="1" fill-rule="nonzero"/><path fill="#ffd51e" d="M 346.273438 72.082031 L 348.992188 72.082031 L 348.992188 66.480469 L 346.273438 66.480469 L 346.273438 72.082031 " fill-opacity="1" fill-rule="nonzero"/><path fill="#ffd51e" d="M 316.066406 73.789062 L 338.121094 73.789062 L 338.121094 77.359375 L 316.523438 77.359375 C 316.523438 77.359375 308.597656 78.066406 308.597656 70.929688 C 308.597656 63.570312 316.523438 64.179688 316.523438 64.179688 L 338.121094 64.179688 L 338.121094 67.746094 L 316.066406 67.746094 C 316.066406 67.746094 312.007812 67.632812 312.007812 70.761719 C 312.007812 73.960938 316.066406 73.789062 316.066406 73.789062 " fill-opacity="1" fill-rule="nonzero"/><g fill="#2b3339" fill-opacity="1"><g transform="translate(472.148537, 70.603046)"><g/></g></g><g fill="#2b3339" fill-opacity="1"><g transform="translate(485.023384, 70.603046)"><g><path d="M 37.921875 -41.828125 C 37.648438 -38.085938 37.515625 -34.738281 37.515625 -31.78125 C 37.515625 -29.925781 37.570312 -28.429688 37.6875 -27.296875 L 36.328125 -27.296875 C 35.390625 -32.140625 34.101562 -35.546875 32.46875 -37.515625 C 30.832031 -39.484375 28.597656 -40.46875 25.765625 -40.46875 L 24.40625 -40.46875 L 24.40625 -6.734375 C 24.40625 -5.078125 24.570312 -3.875 24.90625 -3.125 C 25.238281 -2.382812 25.828125 -1.882812 26.671875 -1.625 C 27.515625 -1.363281 28.863281 -1.21875 30.71875 -1.1875 L 30.71875 0 C 25.757812 -0.113281 22.019531 -0.171875 19.5 -0.171875 C 17.019531 -0.171875 13.414062 -0.113281 8.6875 0 L 8.6875 -1.1875 C 10.539062 -1.21875 11.890625 -1.363281 12.734375 -1.625 C 13.578125 -1.882812 14.164062 -2.382812 14.5 -3.125 C 14.832031 -3.875 15 -5.078125 15 -6.734375 L 15 -40.46875 L 13.703125 -40.46875 C 11.816406 -40.46875 10.210938 -40.050781 8.890625 -39.21875 C 7.566406 -38.394531 6.429688 -37.023438 5.484375 -35.109375 C 4.546875 -33.203125 3.742188 -30.597656 3.078125 -27.296875 L 1.71875 -27.296875 C 1.832031 -28.429688 1.890625 -29.925781 1.890625 -31.78125 C 1.890625 -34.738281 1.753906 -38.085938 1.484375 -41.828125 C 5.066406 -41.710938 11.148438 -41.65625 19.734375 -41.65625 C 28.316406 -41.65625 34.378906 -41.710938 37.921875 -41.828125 Z M 37.921875 -41.828125 "/></g></g></g><g fill="#2b3339" fill-opacity="1"><g transform="translate(523.596545, 70.603046)"><g><path d="M 21.734375 -31.375 C 23.515625 -31.375 24.851562 -30.84375 25.75 -29.78125 C 26.65625 -28.71875 27.109375 -27.4375 27.109375 -25.9375 C 27.109375 -24.476562 26.6875 -23.285156 25.84375 -22.359375 C 25 -21.429688 23.890625 -20.96875 22.515625 -20.96875 C 21.171875 -20.96875 20.101562 -21.3125 19.3125 -22 C 18.53125 -22.695312 18.140625 -23.613281 18.140625 -24.75 C 18.140625 -26.644531 19.003906 -28.179688 20.734375 -29.359375 C 20.578125 -29.398438 20.34375 -29.421875 20.03125 -29.421875 C 19.632812 -29.421875 19.316406 -29.378906 19.078125 -29.296875 C 17.585938 -29.066406 16.316406 -28.160156 15.265625 -26.578125 C 14.222656 -25.003906 13.703125 -23.390625 13.703125 -21.734375 L 13.703125 -6.078125 C 13.703125 -4.273438 14.144531 -3.015625 15.03125 -2.296875 C 15.914062 -1.585938 17.328125 -1.234375 19.265625 -1.234375 L 19.265625 0 C 18.710938 0 18.257812 -0.0195312 17.90625 -0.0625 C 13.882812 -0.175781 11.203125 -0.234375 9.859375 -0.234375 C 8.796875 -0.234375 6.375 -0.175781 2.59375 -0.0625 C 2.28125 -0.0195312 1.890625 0 1.421875 0 L 1.421875 -1.234375 C 2.835938 -1.234375 3.820312 -1.539062 4.375 -2.15625 C 4.925781 -2.769531 5.203125 -3.882812 5.203125 -5.5 L 5.203125 -24.109375 C 5.203125 -25.921875 4.925781 -27.238281 4.375 -28.0625 C 3.820312 -28.882812 2.835938 -29.296875 1.421875 -29.296875 L 1.421875 -30.546875 C 2.679688 -30.421875 3.898438 -30.359375 5.078125 -30.359375 C 8.585938 -30.359375 11.460938 -30.632812 13.703125 -31.1875 L 13.703125 -25.703125 C 14.453125 -27.390625 15.535156 -28.753906 16.953125 -29.796875 C 18.367188 -30.847656 19.960938 -31.375 21.734375 -31.375 Z M 21.734375 -31.375 "/></g></g></g><g fill="#2b3339" fill-opacity="1"><g transform="translate(550.29646, 70.603046)"><g><path d="M 16.65625 -31.375 C 21.1875 -31.375 24.734375 -30.082031 27.296875 -27.5 C 29.859375 -24.914062 31.140625 -20.828125 31.140625 -15.234375 C 31.140625 -9.648438 29.859375 -5.578125 27.296875 -3.015625 C 24.734375 -0.453125 21.1875 0.828125 16.65625 0.828125 C 12.164062 0.828125 8.628906 -0.453125 6.046875 -3.015625 C 3.472656 -5.578125 2.1875 -9.648438 2.1875 -15.234375 C 2.1875 -20.828125 3.472656 -24.914062 6.046875 -27.5 C 8.628906 -30.082031 12.164062 -31.375 16.65625 -31.375 Z M 16.65625 -30.1875 C 14.96875 -30.1875 13.617188 -28.953125 12.609375 -26.484375 C 11.609375 -24.023438 11.109375 -20.273438 11.109375 -15.234375 C 11.109375 -10.203125 11.609375 -6.460938 12.609375 -4.015625 C 13.617188 -1.578125 14.96875 -0.359375 16.65625 -0.359375 C 18.394531 -0.359375 19.753906 -1.566406 20.734375 -3.984375 C 21.722656 -6.410156 22.21875 -10.160156 22.21875 -15.234375 C 22.21875 -20.316406 21.710938 -24.078125 20.703125 -26.515625 C 19.703125 -28.960938 18.351562 -30.1875 16.65625 -30.1875 Z M 16.65625 -30.1875 "/></g></g></g><g fill="#2b3339" fill-opacity="1"><g transform="translate(582.785306, 70.603046)"><g><path d="M 48.921875 -5.5 C 48.921875 -3.882812 49.203125 -2.769531 49.765625 -2.15625 C 50.335938 -1.539062 51.316406 -1.234375 52.703125 -1.234375 L 52.703125 0 C 48.765625 -0.15625 46.164062 -0.234375 44.90625 -0.234375 C 43.800781 -0.234375 41.359375 -0.15625 37.578125 0 L 37.578125 -1.234375 C 38.640625 -1.234375 39.375 -1.53125 39.78125 -2.125 C 40.195312 -2.71875 40.40625 -3.84375 40.40625 -5.5 L 40.40625 -23.875 C 40.40625 -25.519531 40.160156 -26.742188 39.671875 -27.546875 C 39.179688 -28.359375 38.242188 -28.765625 36.859375 -28.765625 C 35.398438 -28.765625 34.128906 -28.15625 33.046875 -26.9375 C 31.960938 -25.71875 31.328125 -24.222656 31.140625 -22.453125 L 31.140625 -5.5 C 31.140625 -3.882812 31.382812 -2.769531 31.875 -2.15625 C 32.363281 -1.539062 33.257812 -1.234375 34.5625 -1.234375 L 34.5625 0 C 30.78125 -0.15625 28.296875 -0.234375 27.109375 -0.234375 C 26.015625 -0.234375 23.578125 -0.15625 19.796875 0 L 19.796875 -1.234375 C 20.859375 -1.234375 21.59375 -1.539062 22 -2.15625 C 22.414062 -2.769531 22.625 -3.882812 22.625 -5.5 L 22.625 -23.875 C 22.625 -25.519531 22.40625 -26.742188 21.96875 -27.546875 C 21.539062 -28.359375 20.695312 -28.765625 19.4375 -28.765625 C 17.863281 -28.765625 16.515625 -28.101562 15.390625 -26.78125 C 14.265625 -25.46875 13.703125 -23.847656 13.703125 -21.921875 L 13.703125 -5.5 C 13.703125 -3.882812 13.910156 -2.769531 14.328125 -2.15625 C 14.742188 -1.539062 15.484375 -1.234375 16.546875 -1.234375 L 16.546875 0 C 13.078125 -0.15625 10.753906 -0.234375 9.578125 -0.234375 C 8.390625 -0.234375 5.671875 -0.15625 1.421875 0 L 1.421875 -1.234375 C 2.835938 -1.234375 3.820312 -1.539062 4.375 -2.15625 C 4.925781 -2.769531 5.203125 -3.882812 5.203125 -5.5 L 5.203125 -24.109375 C 5.203125 -25.921875 4.925781 -27.238281 4.375 -28.0625 C 3.820312 -28.882812 2.835938 -29.296875 1.421875 -29.296875 L 1.421875 -30.546875 C 2.679688 -30.421875 3.898438 -30.359375 5.078125 -30.359375 C 8.585938 -30.359375 11.460938 -30.632812 13.703125 -31.1875 L 13.703125 -25.875 C 15.441406 -29.539062 18.492188 -31.375 22.859375 -31.375 C 25.859375 -31.375 28.023438 -30.601562 29.359375 -29.0625 C 30.109375 -28.28125 30.601562 -27.097656 30.84375 -25.515625 C 31.863281 -27.648438 33.203125 -29.160156 34.859375 -30.046875 C 36.515625 -30.929688 38.441406 -31.375 40.640625 -31.375 C 43.640625 -31.375 45.804688 -30.601562 47.140625 -29.0625 C 47.773438 -28.351562 48.226562 -27.390625 48.5 -26.171875 C 48.78125 -24.953125 48.921875 -23.359375 48.921875 -21.390625 Z M 48.921875 -5.5 "/></g></g></g><g fill="#2b3339" fill-opacity="1"><g transform="translate(635.358267, 70.603046)"><g><path d="M 21.6875 -31.375 C 24.875 -31.375 27.453125 -30.0625 29.421875 -27.4375 C 31.390625 -24.820312 32.375 -21.03125 32.375 -16.0625 C 32.375 -10.28125 31.113281 -6.019531 28.59375 -3.28125 C 26.070312 -0.539062 22.820312 0.828125 18.84375 0.828125 C 16.125 0.828125 13.921875 0.140625 12.234375 -1.234375 C 10.816406 -1.359375 9.394531 -1.203125 7.96875 -0.765625 C 6.550781 -0.335938 5.429688 0.226562 4.609375 0.9375 L 3.71875 0.40625 C 4 -0.570312 4.140625 -1.671875 4.140625 -2.890625 L 4.140625 -39.109375 C 4.140625 -40.921875 3.851562 -42.238281 3.28125 -43.0625 C 2.707031 -43.894531 1.734375 -44.3125 0.359375 -44.3125 L 0.359375 -45.546875 C 1.578125 -45.429688 2.796875 -45.375 4.015625 -45.375 C 7.441406 -45.375 10.316406 -45.648438 12.640625 -46.203125 L 12.640625 -25.765625 C 13.472656 -27.566406 14.675781 -28.953125 16.25 -29.921875 C 17.820312 -30.890625 19.632812 -31.375 21.6875 -31.375 Z M 17.015625 -0.40625 C 19.179688 -0.40625 20.796875 -1.625 21.859375 -4.0625 C 22.921875 -6.507812 23.453125 -10.234375 23.453125 -15.234375 C 23.453125 -20.085938 23 -23.566406 22.09375 -25.671875 C 21.1875 -27.773438 19.890625 -28.828125 18.203125 -28.828125 C 16.941406 -28.828125 15.785156 -28.363281 14.734375 -27.4375 C 13.691406 -26.507812 12.992188 -25.257812 12.640625 -23.6875 L 12.640625 -2.015625 C 13.941406 -0.941406 15.398438 -0.40625 17.015625 -0.40625 Z M 17.015625 -0.40625 "/></g></g></g><g fill="#2b3339" fill-opacity="1"><g transform="translate(669.087611, 70.603046)"><g><path d="M 16.65625 -31.375 C 21.1875 -31.375 24.734375 -30.082031 27.296875 -27.5 C 29.859375 -24.914062 31.140625 -20.828125 31.140625 -15.234375 C 31.140625 -9.648438 29.859375 -5.578125 27.296875 -3.015625 C 24.734375 -0.453125 21.1875 0.828125 16.65625 0.828125 C 12.164062 0.828125 8.628906 -0.453125 6.046875 -3.015625 C 3.472656 -5.578125 2.1875 -9.648438 2.1875 -15.234375 C 2.1875 -20.828125 3.472656 -24.914062 6.046875 -27.5 C 8.628906 -30.082031 12.164062 -31.375 16.65625 -31.375 Z M 16.65625 -30.1875 C 14.96875 -30.1875 13.617188 -28.953125 12.609375 -26.484375 C 11.609375 -24.023438 11.109375 -20.273438 11.109375 -15.234375 C 11.109375 -10.203125 11.609375 -6.460938 12.609375 -4.015625 C 13.617188 -1.578125 14.96875 -0.359375 16.65625 -0.359375 C 18.394531 -0.359375 19.753906 -1.566406 20.734375 -3.984375 C 21.722656 -6.410156 22.21875 -10.160156 22.21875 -15.234375 C 22.21875 -20.316406 21.710938 -24.078125 20.703125 -26.515625 C 19.703125 -28.960938 18.351562 -30.1875 16.65625 -30.1875 Z M 16.65625 -30.1875 "/></g></g></g><g fill="#2b3339" fill-opacity="1"><g transform="translate(701.576465, 70.603046)"><g><path d="M 23.390625 -31.375 C 26.390625 -31.375 28.554688 -30.601562 29.890625 -29.0625 C 30.554688 -28.3125 31.023438 -27.347656 31.296875 -26.171875 C 31.578125 -24.992188 31.71875 -23.398438 31.71875 -21.390625 L 31.71875 -5.5 C 31.71875 -3.882812 32.003906 -2.769531 32.578125 -2.15625 C 33.148438 -1.539062 34.125 -1.234375 35.5 -1.234375 L 35.5 0 C 31.5625 -0.15625 28.960938 -0.234375 27.703125 -0.234375 C 26.523438 -0.234375 23.96875 -0.15625 20.03125 0 L 20.03125 -1.234375 C 21.207031 -1.234375 22.03125 -1.539062 22.5 -2.15625 C 22.976562 -2.769531 23.21875 -3.882812 23.21875 -5.5 L 23.21875 -23.875 C 23.21875 -25.488281 22.953125 -26.707031 22.421875 -27.53125 C 21.890625 -28.351562 20.9375 -28.765625 19.5625 -28.765625 C 17.9375 -28.765625 16.550781 -28.101562 15.40625 -26.78125 C 14.269531 -25.46875 13.703125 -23.847656 13.703125 -21.921875 L 13.703125 -5.5 C 13.703125 -3.882812 13.9375 -2.769531 14.40625 -2.15625 C 14.882812 -1.539062 15.710938 -1.234375 16.890625 -1.234375 L 16.890625 0 C 13.273438 -0.15625 10.835938 -0.234375 9.578125 -0.234375 C 8.390625 -0.234375 5.671875 -0.15625 1.421875 0 L 1.421875 -1.234375 C 2.835938 -1.234375 3.820312 -1.539062 4.375 -2.15625 C 4.925781 -2.769531 5.203125 -3.882812 5.203125 -5.5 L 5.203125 -24.109375 C 5.203125 -25.921875 4.925781 -27.238281 4.375 -28.0625 C 3.820312 -28.882812 2.835938 -29.296875 1.421875 -29.296875 L 1.421875 -30.546875 C 2.679688 -30.421875 3.898438 -30.359375 5.078125 -30.359375 C 8.585938 -30.359375 11.460938 -30.632812 13.703125 -31.1875 L 13.703125 -25.875 C 15.472656 -29.539062 18.703125 -31.375 23.390625 -31.375 Z M 23.390625 -31.375 "/></g></g></g><g fill="#2b3339" fill-opacity="1"><g transform="translate(736.959795, 70.603046)"><g><path d="M 18.78125 -4.015625 C 22.007812 -4.015625 24.609375 -5.59375 26.578125 -8.75 L 27.65625 -8.390625 C 26.863281 -5.828125 25.453125 -3.648438 23.421875 -1.859375 C 21.390625 -0.0664062 18.859375 0.828125 15.828125 0.828125 C 11.660156 0.828125 8.34375 -0.5 5.875 -3.15625 C 3.414062 -5.820312 2.1875 -9.753906 2.1875 -14.953125 C 2.1875 -20.265625 3.503906 -24.328125 6.140625 -27.140625 C 8.785156 -29.960938 12.289062 -31.375 16.65625 -31.375 C 24.0625 -31.375 27.765625 -27 27.765625 -18.25 L 11.171875 -18.25 C 11.128906 -17.664062 11.109375 -16.742188 11.109375 -15.484375 C 11.109375 -12.878906 11.472656 -10.707031 12.203125 -8.96875 C 12.929688 -7.238281 13.875 -5.976562 15.03125 -5.1875 C 16.195312 -4.40625 17.445312 -4.015625 18.78125 -4.015625 Z M 16.3125 -30.125 C 14.882812 -30.125 13.707031 -29.25 12.78125 -27.5 C 11.863281 -25.75 11.285156 -23.039062 11.046875 -19.375 L 20.328125 -19.375 C 20.398438 -22.488281 20.09375 -25.054688 19.40625 -27.078125 C 18.71875 -29.109375 17.6875 -30.125 16.3125 -30.125 Z M 16.3125 -30.125 "/></g></g></g><g fill="#2b3339" fill-opacity="1"><g transform="translate(765.845318, 70.603046)"><g><path d="M 13.109375 -31.375 C 14.609375 -31.375 15.988281 -31.1875 17.25 -30.8125 C 18.507812 -30.4375 19.472656 -30.015625 20.140625 -29.546875 C 20.535156 -29.265625 20.890625 -29.125 21.203125 -29.125 C 21.554688 -29.125 21.863281 -29.3125 22.125 -29.6875 C 22.382812 -30.0625 22.550781 -30.601562 22.625 -31.3125 L 23.875 -31.3125 C 23.707031 -29.300781 23.625 -25.832031 23.625 -20.90625 L 22.390625 -20.90625 C 22.035156 -23.507812 21.253906 -25.6875 20.046875 -27.4375 C 18.847656 -29.195312 17.109375 -30.078125 14.828125 -30.078125 C 13.648438 -30.078125 12.675781 -29.738281 11.90625 -29.0625 C 11.132812 -28.394531 10.75 -27.472656 10.75 -26.296875 C 10.75 -24.953125 11.203125 -23.796875 12.109375 -22.828125 C 13.015625 -21.867188 14.429688 -20.695312 16.359375 -19.3125 L 18.078125 -18.078125 C 20.484375 -16.265625 22.253906 -14.648438 23.390625 -13.234375 C 24.535156 -11.816406 25.109375 -10.046875 25.109375 -7.921875 C 25.109375 -6.179688 24.601562 -4.640625 23.59375 -3.296875 C 22.59375 -1.960938 21.242188 -0.941406 19.546875 -0.234375 C 17.859375 0.472656 15.988281 0.828125 13.9375 0.828125 C 11.769531 0.828125 9.921875 0.414062 8.390625 -0.40625 C 7.128906 -1.039062 6.222656 -1.457031 5.671875 -1.65625 C 5.273438 -1.769531 4.925781 -1.640625 4.625 -1.265625 C 4.332031 -0.890625 4.109375 -0.332031 3.953125 0.40625 L 2.71875 0.40625 C 2.875 -1.832031 2.953125 -5.769531 2.953125 -11.40625 L 4.1875 -11.40625 C 4.976562 -4.15625 7.640625 -0.53125 12.171875 -0.53125 C 13.316406 -0.53125 14.289062 -0.875 15.09375 -1.5625 C 15.90625 -2.25 16.3125 -3.300781 16.3125 -4.71875 C 16.3125 -5.820312 16.0625 -6.804688 15.5625 -7.671875 C 15.070312 -8.546875 14.453125 -9.316406 13.703125 -9.984375 C 12.953125 -10.648438 11.832031 -11.578125 10.34375 -12.765625 C 8.570312 -14.179688 7.222656 -15.320312 6.296875 -16.1875 C 5.367188 -17.050781 4.578125 -18.070312 3.921875 -19.25 C 3.273438 -20.4375 2.953125 -21.757812 2.953125 -23.21875 C 2.953125 -25.738281 3.9375 -27.726562 5.90625 -29.1875 C 7.875 -30.644531 10.273438 -31.375 13.109375 -31.375 Z M 13.109375 -31.375 "/></g></g></g><g fill="#2b3339" fill-opacity="1"><g transform="translate(10.859007, 68.42029)"><g><path d="M 31.421875 -4.3125 C 32.054688 -3.363281 32.570312 -2.660156 32.96875 -2.203125 C 33.363281 -1.753906 33.875 -1.429688 34.5 -1.234375 L 34.5 0 C 31.351562 -0.15625 29.285156 -0.234375 28.296875 -0.234375 C 26.992188 -0.234375 24.453125 -0.15625 20.671875 0 L 20.671875 -1.234375 C 21.222656 -1.234375 21.65625 -1.332031 21.96875 -1.53125 C 22.289062 -1.726562 22.453125 -2.003906 22.453125 -2.359375 C 22.453125 -2.554688 22.351562 -2.851562 22.15625 -3.25 L 16.3125 -13.828125 C 15.914062 -14.492188 15.5 -14.941406 15.0625 -15.171875 C 14.632812 -15.410156 14.082031 -15.570312 13.40625 -15.65625 L 13.40625 -5.5 C 13.40625 -3.882812 13.660156 -2.769531 14.171875 -2.15625 C 14.691406 -1.539062 15.617188 -1.234375 16.953125 -1.234375 L 16.953125 0 C 13.015625 -0.15625 10.457031 -0.234375 9.28125 -0.234375 C 7.9375 -0.234375 5.21875 -0.15625 1.125 0 L 1.125 -1.234375 C 2.5 -1.234375 3.472656 -1.539062 4.046875 -2.15625 C 4.617188 -2.769531 4.90625 -3.882812 4.90625 -5.5 L 4.90625 -39.171875 C 4.90625 -40.984375 4.617188 -42.300781 4.046875 -43.125 C 3.472656 -43.957031 2.5 -44.375 1.125 -44.375 L 1.125 -45.609375 C 2.382812 -45.492188 3.601562 -45.4375 4.78125 -45.4375 C 8.207031 -45.4375 11.082031 -45.710938 13.40625 -46.265625 L 13.40625 -16.78125 C 14.195312 -16.851562 14.878906 -17.007812 15.453125 -17.25 C 16.023438 -17.488281 16.523438 -17.84375 16.953125 -18.3125 L 21.453125 -22.6875 C 22.742188 -23.988281 23.390625 -25.191406 23.390625 -26.296875 C 23.390625 -27.203125 22.972656 -27.921875 22.140625 -28.453125 C 21.316406 -28.984375 20.21875 -29.285156 18.84375 -29.359375 L 18.84375 -30.546875 C 21.007812 -30.421875 23.316406 -30.359375 25.765625 -30.359375 C 29.023438 -30.359375 31.328125 -30.421875 32.671875 -30.546875 L 32.671875 -29.359375 C 30.347656 -28.847656 27.882812 -27.332031 25.28125 -24.8125 L 21.5 -20.90625 Z M 31.421875 -4.3125 "/></g></g></g><g fill="#2b3339" fill-opacity="1"><g transform="translate(44.529278, 68.42029)"><g><path d="M 9.21875 0.40625 C 6.695312 0.40625 4.816406 -0.238281 3.578125 -1.53125 C 2.335938 -2.832031 1.71875 -4.546875 1.71875 -6.671875 C 1.71875 -8.441406 2.175781 -9.90625 3.09375 -11.0625 C 4.019531 -12.226562 5.144531 -13.125 6.46875 -13.75 C 7.789062 -14.382812 9.472656 -15.0625 11.515625 -15.78125 C 13.679688 -16.519531 15.265625 -17.195312 16.265625 -17.8125 C 17.273438 -18.425781 17.78125 -19.265625 17.78125 -20.328125 L 17.78125 -24.9375 C 17.78125 -26.582031 17.394531 -27.867188 16.625 -28.796875 C 15.863281 -29.722656 14.675781 -30.1875 13.0625 -30.1875 C 11.164062 -30.1875 9.726562 -29.710938 8.75 -28.765625 C 9.84375 -28.378906 10.695312 -27.789062 11.3125 -27 C 11.925781 -26.207031 12.234375 -25.28125 12.234375 -24.21875 C 12.234375 -22.882812 11.78125 -21.820312 10.875 -21.03125 C 9.96875 -20.238281 8.863281 -19.84375 7.5625 -19.84375 C 6.1875 -19.84375 5.125 -20.273438 4.375 -21.140625 C 3.625 -22.015625 3.25 -23.101562 3.25 -24.40625 C 3.25 -25.5 3.515625 -26.429688 4.046875 -27.203125 C 4.578125 -27.972656 5.394531 -28.691406 6.5 -29.359375 C 7.5625 -29.992188 8.867188 -30.488281 10.421875 -30.84375 C 11.984375 -31.195312 13.6875 -31.375 15.53125 -31.375 C 17.46875 -31.375 19.144531 -31.175781 20.5625 -30.78125 C 21.976562 -30.382812 23.160156 -29.710938 24.109375 -28.765625 C 24.972656 -27.898438 25.550781 -26.835938 25.84375 -25.578125 C 26.144531 -24.316406 26.296875 -22.601562 26.296875 -20.4375 L 26.296875 -4.375 C 26.296875 -3.425781 26.382812 -2.753906 26.5625 -2.359375 C 26.738281 -1.960938 27.082031 -1.765625 27.59375 -1.765625 C 28.175781 -1.765625 28.882812 -2.101562 29.71875 -2.78125 L 30.3125 -1.765625 C 28.539062 -0.316406 26.375 0.40625 23.8125 0.40625 C 21.644531 0.40625 20.125 -0.0234375 19.25 -0.890625 C 18.382812 -1.753906 17.9375 -2.914062 17.90625 -4.375 C 15.9375 -1.1875 13.039062 0.40625 9.21875 0.40625 Z M 13.765625 -3.375 C 15.296875 -3.375 16.632812 -4.179688 17.78125 -5.796875 L 17.78125 -17.90625 C 17.3125 -17.113281 16.304688 -16.242188 14.765625 -15.296875 C 13.234375 -14.316406 12.070312 -13.332031 11.28125 -12.34375 C 10.5 -11.363281 10.109375 -9.945312 10.109375 -8.09375 C 10.109375 -6.476562 10.441406 -5.285156 11.109375 -4.515625 C 11.773438 -3.753906 12.660156 -3.375 13.765625 -3.375 Z M 13.765625 -3.375 "/></g></g></g><g fill="#2b3339" fill-opacity="1"><g transform="translate(74.241806, 68.42029)"><g><path d="M 13.46875 -5.5 C 13.46875 -3.882812 13.742188 -2.769531 14.296875 -2.15625 C 14.847656 -1.539062 15.832031 -1.234375 17.25 -1.234375 L 17.25 0 C 13.15625 -0.15625 10.515625 -0.234375 9.328125 -0.234375 C 7.992188 -0.234375 5.28125 -0.15625 1.1875 0 L 1.1875 -1.234375 C 2.5625 -1.234375 3.535156 -1.539062 4.109375 -2.15625 C 4.679688 -2.769531 4.96875 -3.882812 4.96875 -5.5 L 4.96875 -39.171875 C 4.96875 -40.984375 4.679688 -42.300781 4.109375 -43.125 C 3.535156 -43.957031 2.5625 -44.375 1.1875 -44.375 L 1.1875 -45.609375 C 2.445312 -45.492188 3.664062 -45.4375 4.84375 -45.4375 C 8.269531 -45.4375 11.144531 -45.710938 13.46875 -46.265625 Z M 13.46875 -5.5 "/></g></g></g><g fill="#2b3339" fill-opacity="1"><g transform="translate(91.726656, 68.42029)"><g><path d="M 9.21875 0.40625 C 6.695312 0.40625 4.816406 -0.238281 3.578125 -1.53125 C 2.335938 -2.832031 1.71875 -4.546875 1.71875 -6.671875 C 1.71875 -8.441406 2.175781 -9.90625 3.09375 -11.0625 C 4.019531 -12.226562 5.144531 -13.125 6.46875 -13.75 C 7.789062 -14.382812 9.472656 -15.0625 11.515625 -15.78125 C 13.679688 -16.519531 15.265625 -17.195312 16.265625 -17.8125 C 17.273438 -18.425781 17.78125 -19.265625 17.78125 -20.328125 L 17.78125 -24.9375 C 17.78125 -26.582031 17.394531 -27.867188 16.625 -28.796875 C 15.863281 -29.722656 14.675781 -30.1875 13.0625 -30.1875 C 11.164062 -30.1875 9.726562 -29.710938 8.75 -28.765625 C 9.84375 -28.378906 10.695312 -27.789062 11.3125 -27 C 11.925781 -26.207031 12.234375 -25.28125 12.234375 -24.21875 C 12.234375 -22.882812 11.78125 -21.820312 10.875 -21.03125 C 9.96875 -20.238281 8.863281 -19.84375 7.5625 -19.84375 C 6.1875 -19.84375 5.125 -20.273438 4.375 -21.140625 C 3.625 -22.015625 3.25 -23.101562 3.25 -24.40625 C 3.25 -25.5 3.515625 -26.429688 4.046875 -27.203125 C 4.578125 -27.972656 5.394531 -28.691406 6.5 -29.359375 C 7.5625 -29.992188 8.867188 -30.488281 10.421875 -30.84375 C 11.984375 -31.195312 13.6875 -31.375 15.53125 -31.375 C 17.46875 -31.375 19.144531 -31.175781 20.5625 -30.78125 C 21.976562 -30.382812 23.160156 -29.710938 24.109375 -28.765625 C 24.972656 -27.898438 25.550781 -26.835938 25.84375 -25.578125 C 26.144531 -24.316406 26.296875 -22.601562 26.296875 -20.4375 L 26.296875 -4.375 C 26.296875 -3.425781 26.382812 -2.753906 26.5625 -2.359375 C 26.738281 -1.960938 27.082031 -1.765625 27.59375 -1.765625 C 28.175781 -1.765625 28.882812 -2.101562 29.71875 -2.78125 L 30.3125 -1.765625 C 28.539062 -0.316406 26.375 0.40625 23.8125 0.40625 C 21.644531 0.40625 20.125 -0.0234375 19.25 -0.890625 C 18.382812 -1.753906 17.9375 -2.914062 17.90625 -4.375 C 15.9375 -1.1875 13.039062 0.40625 9.21875 0.40625 Z M 13.765625 -3.375 C 15.296875 -3.375 16.632812 -4.179688 17.78125 -5.796875 L 17.78125 -17.90625 C 17.3125 -17.113281 16.304688 -16.242188 14.765625 -15.296875 C 13.234375 -14.316406 12.070312 -13.332031 11.28125 -12.34375 C 10.5 -11.363281 10.109375 -9.945312 10.109375 -8.09375 C 10.109375 -6.476562 10.441406 -5.285156 11.109375 -4.515625 C 11.773438 -3.753906 12.660156 -3.375 13.765625 -3.375 Z M 13.765625 -3.375 "/></g></g></g><g fill="#2b3339" fill-opacity="1"><g transform="translate(121.439188, 68.42029)"><g><path d="M 42 -30.359375 C 44.007812 -30.359375 45.507812 -30.421875 46.5 -30.546875 L 46.5 -29.359375 C 45.664062 -29.117188 44.914062 -28.625 44.25 -27.875 C 43.582031 -27.132812 42.992188 -25.9375 42.484375 -24.28125 L 34.625 0.125 C 34.1875 0.0820312 33.535156 0.0625 32.671875 0.0625 C 31.835938 0.0625 31.207031 0.0820312 30.78125 0.125 L 22.75 -21.796875 L 16.1875 0.125 C 15.789062 0.0820312 15.160156 0.0625 14.296875 0.0625 C 13.429688 0.0625 12.78125 0.0820312 12.34375 0.125 L 3.015625 -26 C 2.535156 -27.375 2 -28.265625 1.40625 -28.671875 C 0.820312 -29.085938 0.21875 -29.296875 -0.40625 -29.296875 L -0.40625 -30.546875 C 2.144531 -30.304688 4.9375 -30.1875 7.96875 -30.1875 C 9.9375 -30.1875 12.5 -30.304688 15.65625 -30.546875 L 15.65625 -29.296875 C 14.351562 -29.296875 13.414062 -29.195312 12.84375 -29 C 12.28125 -28.8125 12 -28.34375 12 -27.59375 C 12 -27.082031 12.09375 -26.550781 12.28125 -26 L 17.609375 -9.28125 L 24.046875 -30.609375 L 26.234375 -30.546875 L 28.359375 -30.609375 L 36.03125 -8.03125 L 39.765625 -19.90625 C 40.316406 -21.757812 40.59375 -23.257812 40.59375 -24.40625 C 40.59375 -27.46875 39.035156 -29.117188 35.921875 -29.359375 L 35.921875 -30.546875 C 37.773438 -30.421875 39.800781 -30.359375 42 -30.359375 Z M 42 -30.359375 "/></g></g></g><g fill="#2b3339" fill-opacity="1"><g transform="translate(167.041794, 68.42029)"><g><path d="M 9.21875 0.40625 C 6.695312 0.40625 4.816406 -0.238281 3.578125 -1.53125 C 2.335938 -2.832031 1.71875 -4.546875 1.71875 -6.671875 C 1.71875 -8.441406 2.175781 -9.90625 3.09375 -11.0625 C 4.019531 -12.226562 5.144531 -13.125 6.46875 -13.75 C 7.789062 -14.382812 9.472656 -15.0625 11.515625 -15.78125 C 13.679688 -16.519531 15.265625 -17.195312 16.265625 -17.8125 C 17.273438 -18.425781 17.78125 -19.265625 17.78125 -20.328125 L 17.78125 -24.9375 C 17.78125 -26.582031 17.394531 -27.867188 16.625 -28.796875 C 15.863281 -29.722656 14.675781 -30.1875 13.0625 -30.1875 C 11.164062 -30.1875 9.726562 -29.710938 8.75 -28.765625 C 9.84375 -28.378906 10.695312 -27.789062 11.3125 -27 C 11.925781 -26.207031 12.234375 -25.28125 12.234375 -24.21875 C 12.234375 -22.882812 11.78125 -21.820312 10.875 -21.03125 C 9.96875 -20.238281 8.863281 -19.84375 7.5625 -19.84375 C 6.1875 -19.84375 5.125 -20.273438 4.375 -21.140625 C 3.625 -22.015625 3.25 -23.101562 3.25 -24.40625 C 3.25 -25.5 3.515625 -26.429688 4.046875 -27.203125 C 4.578125 -27.972656 5.394531 -28.691406 6.5 -29.359375 C 7.5625 -29.992188 8.867188 -30.488281 10.421875 -30.84375 C 11.984375 -31.195312 13.6875 -31.375 15.53125 -31.375 C 17.46875 -31.375 19.144531 -31.175781 20.5625 -30.78125 C 21.976562 -30.382812 23.160156 -29.710938 24.109375 -28.765625 C 24.972656 -27.898438 25.550781 -26.835938 25.84375 -25.578125 C 26.144531 -24.316406 26.296875 -22.601562 26.296875 -20.4375 L 26.296875 -4.375 C 26.296875 -3.425781 26.382812 -2.753906 26.5625 -2.359375 C 26.738281 -1.960938 27.082031 -1.765625 27.59375 -1.765625 C 28.175781 -1.765625 28.882812 -2.101562 29.71875 -2.78125 L 30.3125 -1.765625 C 28.539062 -0.316406 26.375 0.40625 23.8125 0.40625 C 21.644531 0.40625 20.125 -0.0234375 19.25 -0.890625 C 18.382812 -1.753906 17.9375 -2.914062 17.90625 -4.375 C 15.9375 -1.1875 13.039062 0.40625 9.21875 0.40625 Z M 13.765625 -3.375 C 15.296875 -3.375 16.632812 -4.179688 17.78125 -5.796875 L 17.78125 -17.90625 C 17.3125 -17.113281 16.304688 -16.242188 14.765625 -15.296875 C 13.234375 -14.316406 12.070312 -13.332031 11.28125 -12.34375 C 10.5 -11.363281 10.109375 -9.945312 10.109375 -8.09375 C 10.109375 -6.476562 10.441406 -5.285156 11.109375 -4.515625 C 11.773438 -3.753906 12.660156 -3.375 13.765625 -3.375 Z M 13.765625 -3.375 "/></g></g></g><g fill="#2b3339" fill-opacity="1"><g transform="translate(196.754325, 68.42029)"><g><path d="M -1.359375 10.046875 C 0.609375 9.960938 2.15625 9.171875 3.28125 7.671875 C 4.40625 6.179688 4.96875 3.976562 4.96875 1.0625 L 4.96875 -24.109375 C 4.96875 -25.921875 4.679688 -27.238281 4.109375 -28.0625 C 3.535156 -28.882812 2.5625 -29.296875 1.1875 -29.296875 L 1.1875 -30.546875 C 2.445312 -30.421875 3.664062 -30.359375 4.84375 -30.359375 C 8.269531 -30.359375 11.144531 -30.632812 13.46875 -31.1875 L 13.46875 -5.546875 C 13.46875 -2.242188 13.140625 0.46875 12.484375 2.59375 C 11.835938 4.726562 10.75 6.503906 9.21875 7.921875 C 6.894531 10.046875 3.367188 11.109375 -1.359375 11.109375 Z M 8.578125 -45.78125 C 10.222656 -45.78125 11.53125 -45.375 12.5 -44.5625 C 13.46875 -43.757812 13.953125 -42.648438 13.953125 -41.234375 C 13.953125 -39.816406 13.46875 -38.703125 12.5 -37.890625 C 11.53125 -37.085938 10.222656 -36.6875 8.578125 -36.6875 C 6.921875 -36.6875 5.609375 -37.085938 4.640625 -37.890625 C 3.679688 -38.703125 3.203125 -39.816406 3.203125 -41.234375 C 3.203125 -42.648438 3.679688 -43.757812 4.640625 -44.5625 C 5.609375 -45.375 6.921875 -45.78125 8.578125 -45.78125 Z M 8.578125 -45.78125 "/></g></g></g><g fill="#2b3339" fill-opacity="1"><g transform="translate(213.412191, 68.42029)"><g><path d="M 9.21875 0.40625 C 6.695312 0.40625 4.816406 -0.238281 3.578125 -1.53125 C 2.335938 -2.832031 1.71875 -4.546875 1.71875 -6.671875 C 1.71875 -8.441406 2.175781 -9.90625 3.09375 -11.0625 C 4.019531 -12.226562 5.144531 -13.125 6.46875 -13.75 C 7.789062 -14.382812 9.472656 -15.0625 11.515625 -15.78125 C 13.679688 -16.519531 15.265625 -17.195312 16.265625 -17.8125 C 17.273438 -18.425781 17.78125 -19.265625 17.78125 -20.328125 L 17.78125 -24.9375 C 17.78125 -26.582031 17.394531 -27.867188 16.625 -28.796875 C 15.863281 -29.722656 14.675781 -30.1875 13.0625 -30.1875 C 11.164062 -30.1875 9.726562 -29.710938 8.75 -28.765625 C 9.84375 -28.378906 10.695312 -27.789062 11.3125 -27 C 11.925781 -26.207031 12.234375 -25.28125 12.234375 -24.21875 C 12.234375 -22.882812 11.78125 -21.820312 10.875 -21.03125 C 9.96875 -20.238281 8.863281 -19.84375 7.5625 -19.84375 C 6.1875 -19.84375 5.125 -20.273438 4.375 -21.140625 C 3.625 -22.015625 3.25 -23.101562 3.25 -24.40625 C 3.25 -25.5 3.515625 -26.429688 4.046875 -27.203125 C 4.578125 -27.972656 5.394531 -28.691406 6.5 -29.359375 C 7.5625 -29.992188 8.867188 -30.488281 10.421875 -30.84375 C 11.984375 -31.195312 13.6875 -31.375 15.53125 -31.375 C 17.46875 -31.375 19.144531 -31.175781 20.5625 -30.78125 C 21.976562 -30.382812 23.160156 -29.710938 24.109375 -28.765625 C 24.972656 -27.898438 25.550781 -26.835938 25.84375 -25.578125 C 26.144531 -24.316406 26.296875 -22.601562 26.296875 -20.4375 L 26.296875 -4.375 C 26.296875 -3.425781 26.382812 -2.753906 26.5625 -2.359375 C 26.738281 -1.960938 27.082031 -1.765625 27.59375 -1.765625 C 28.175781 -1.765625 28.882812 -2.101562 29.71875 -2.78125 L 30.3125 -1.765625 C 28.539062 -0.316406 26.375 0.40625 23.8125 0.40625 C 21.644531 0.40625 20.125 -0.0234375 19.25 -0.890625 C 18.382812 -1.753906 17.9375 -2.914062 17.90625 -4.375 C 15.9375 -1.1875 13.039062 0.40625 9.21875 0.40625 Z M 13.765625 -3.375 C 15.296875 -3.375 16.632812 -4.179688 17.78125 -5.796875 L 17.78125 -17.90625 C 17.3125 -17.113281 16.304688 -16.242188 14.765625 -15.296875 C 13.234375 -14.316406 12.070312 -13.332031 11.28125 -12.34375 C 10.5 -11.363281 10.109375 -9.945312 10.109375 -8.09375 C 10.109375 -6.476562 10.441406 -5.285156 11.109375 -4.515625 C 11.773438 -3.753906 12.660156 -3.375 13.765625 -3.375 Z M 13.765625 -3.375 "/></g></g></g><g fill="#2b3339" fill-opacity="1"><g transform="translate(243.117834, 68.42029)"><g/></g></g></svg>